<svg xmlns="http://www.w3.org/2000/svg" width="210mm" height="297mm" viewBox="0 0 744.094 1052.362">
    <path d="M331.998 240.153c-20.292 13.859-38.74 30.16-56.744 46.82-11.233 11.011-22.65 21.83-33.974 32.75-7.908 7.625-12.962 11.95-19.891 20.417-3.113 3.804-5.85 7.898-8.776 11.847-17.745 25.838-28.51 55.147-36.707 85.157-3.11 14.173-6.456 28.318-8.484 42.7-1.106 7.845-1.57 13.819-2.343 21.886-1.928 26.8-2.664 53.782-.874 80.619 1.309 19.618 2.948 28.925 5.64 48.427 1.259 7.887 2.264 15.819 3.775 23.661 1.462 7.589 3.373 15.083 5.14 22.606 5.99 25.502 12.616 50.75 21.773 75.332 2.837 7.619 6.143 15.054 9.215 22.581 9.907 20.49 19.273 42.165 34.51 59.449 6.614 7.501 10.348 9.848 18.082 15.863 16.891 10.893 36.574 15.174 56.12 18.41 24.87 4.137 49.893 2.18 74.784-.472 22.858-3.264 45.995-6.615 68.106-13.534 16.439-5.144 25.604-9.53 41.914-16.408 23.997-10.634 47.083-23.102 69.848-36.122 3.374-1.93-13.327 7.957-10.2 5.65 5.04-3.72 10.658-6.584 15.968-9.907 4.489-2.809 8.952-5.658 13.428-8.487 10.116-6.755 20.108-13.887 28.836-22.414 10.012-9.783 18.47-21.013 27.079-31.999 15.415-21.02 28.127-43.912 37.143-68.396 1.753-4.762 3.186-9.637 4.779-14.455 8.615-26.24 12.004-53.585 13.783-81.011.41-20.87 2.508-42.024-.755-62.786-.809-5.144-2.13-10.193-3.196-15.29-9.024-34.467-24.336-66.817-41.05-98.13-17.215-29.295-38.585-55.99-61.983-80.571-4.31-4.528-8.836-8.844-13.255-13.266-18.764-16.749-38.094-33.514-60.05-46.042-3.07-1.752-6.292-3.225-9.439-4.838-10.645-4.547-21.26-9.442-32.544-12.23-6.802-1.68-9.828-1.94-16.766-2.944-20.54-2.155-41.237-2.171-61.867-2.353-23.049-.547-46.07.227-69.011 2.435-5.942.969-12.02 1.449-17.842 3.079-4.37 1.223-8.643 3.042-12.835 4.76-5.826 3.248-11.877 6.022-17.77 9.145l-3.382 1.62 30.757-24.58 3.312-1.69c5.889-3.074 11.855-6.032 17.936-8.704 9.872-3.612 19.967-5.845 30.517-6.311 22.663-1.48 45.358-1.36 68.061-1.35 21.073-.055 42.263-.674 63.21 2.08 7.023 1.144 10.252 1.49 17.137 3.33 11.314 3.02 21.958 8.121 32.444 13.227 3.096 1.767 6.268 3.406 9.286 5.3 6.936 4.353 14.338 9.94 20.76 14.932 13.236 10.293 26.08 21.107 38.13 32.778 27.857 29.348 54.798 59.915 75.935 94.58 16.863 31.57 31.97 64.237 42.05 98.667 1.26 5.14 2.785 10.224 3.777 15.423 3.973 20.809 2.135 42.168 1.48 63.166-1.9 27.826-5.602 55.509-14.113 82.185-1.584 4.902-3.007 9.86-4.753 14.707-8.899 24.696-21.41 47.842-36.575 69.239-8.312 10.87-16.329 22.373-25.897 32.21-8.858 9.108-19.372 16.46-29.864 23.513-48.159 29.9-96.965 59.08-148.664 82.509-17.186 7.369-26.64 12.035-44.005 17.388-22.3 6.874-45.716 9.84-68.699 13.325-25.54 2.783-51.403 5.172-76.922.734-19.893-3.689-39.85-8.385-56.606-20.353-7.63-6.348-11.679-9.119-18.075-16.988-14.744-18.14-23.22-40.526-32.41-61.692-2.947-7.662-6.073-15.258-8.842-22.987-14.158-39.513-25.811-80.252-31.422-121.905-2.354-16.403-4.827-31.95-6.242-48.471-2.269-26.495-1.705-53.117-1.853-79.673.133-4.1.11-8.208.399-12.3 1.27-18.073 6.56-35.572 10.49-53.158 4.066-14.486 8.353-28.946 14.046-42.9 6.165-15.11 13.892-29.563 22.323-43.512 2.81-4.044 5.392-8.255 8.43-12.13 6.644-8.476 12.135-13.26 19.9-20.712 11.543-11.075 23.47-21.73 34.723-33.107 16.823-16.02 34.131-31.588 52.61-45.697l37.044-14.632z"/>
</svg>