<svg xmlns="http://www.w3.org/2000/svg" width="896" height="773">
    <path 
        className='x-dash-1'
        d="M302.361 209.347c30.591 28.281 62.163 55.481 93.649 82.757 9.313 8.148 18.664 16.254 27.94 24.445 18.334 16.192 36.692 32.489 54.31 49.468 22.915 22.083 44.793 45.202 66.4 68.55 18.475 19.766 35.191 41.111 49.002 64.397 4.812 8.113 6.115 11.081 10.06 19.063 4.054 7.882 6.851 16.21 7.965 24.989.546 4.246.382 8.53.658 12.792l-22.048 11.416c-.282-4.253-.086-8.522-.436-12.775-.858-8.645-2.865-17.101-6.076-25.192-3.343-8.497-4.111-10.97-8.531-19.652-12.19-23.942-27.997-45.71-45.6-65.953-6.234-7.172-12.342-14.456-18.702-21.517-39.515-43.867-82.644-84.332-128.413-121.61-9.02-7.285-17.986-14.639-27.061-21.855-19.078-15.17-24.618-19.108-42.792-33.223-11.494-8.928-13.993-11.45-25.32-18.995-1.926-1.283-3.984-2.358-5.975-3.536l20.97-13.569z"/>
    <path className='x-dash-2' d="M604.056 199.284c-8.527 21.482-19.513 41.925-30.118 62.432-29.944 55.941-59.123 112.275-87.79 168.88-22.118 45.244-42.847 91.184-60.514 138.362-7.144 19.074-9.02 25.324-15.023 43.583l-17.892 8.35c9.886-25.258 19.939-50.446 30.65-75.37 12.443-28.953 18.56-42.033 32.07-71.055 5.91-12.697 11.893-25.36 17.84-38.04 11.132-23.2 21.664-45.36 33.071-68.372 16.238-32.756 33.386-65.058 49.215-98.018 5.568-11.771 8.993-18.866 14.21-30.383 3.794-8.376 7.672-16.862 10.648-25.58.462-1.354.788-2.75 1.182-4.126l22.451-10.663z"/>
</svg>